<?xml version="1.0" encoding="UTF-8" standalone="no"?>
<!-- Created with Inkscape (http://www.inkscape.org/) -->

<svg
   version="1.1"
   id="svg1"
   width="833.33331"
   height="833.33331"
   viewBox="0 0 833.33331 833.33331"
   xml:space="preserve"
   xmlns:xlink="http://www.w3.org/1999/xlink"
   xmlns="http://www.w3.org/2000/svg"
   xmlns:svg="http://www.w3.org/2000/svg"><defs
     id="defs1"><linearGradient
       id="linearGradient50"><stop
         style="stop-color:#11111b;stop-opacity:1;"
         offset="0"
         id="stop50" /><stop
         style="stop-color:#11111b;stop-opacity:0;"
         offset="1"
         id="stop51" /></linearGradient><linearGradient
       xlink:href="#linearGradient50"
       id="linearGradient51"
       x1="21.247692"
       y1="419.05161"
       x2="813.02667"
       y2="419.05161"
       gradientUnits="userSpaceOnUse" /></defs><g
     id="layer6"><rect 
       class="background"
       style="display:inline;fill:#04a5e5;fill-opacity:1;stroke:none;stroke-opacity:0"
       id="rect51"
       width="833.33331"
       height="833.33331"
       x="0"
       y="0" /></g><g
     id="layer3"
     style="mix-blend-mode:normal"><path
       class="penguin"
       style="mix-blend-mode:normal;fill:#1e1e2e;fill-opacity:1"
       d="m 660.40019,636.65776 c -6.5671,-26.64738 0.96129,-32.33068 0.96129,-32.33068 0,0 20.53499,-16.04297 35.06505,0 14.53005,16.04296 6.06303,17.17744 6.06303,17.17744 z"
       id="path48" /><path
       style="mix-blend-mode:normal;fill:#1e1e2e;fill-opacity:1;stroke-width:1.15125"
       d="m 478.95789,650.94518 c 23.91479,-44.57012 44.6834,-43.23349 44.6834,-43.23349 0,0 31.95869,22.05059 1.40568,46.74481 -27.64634,26.29063 -45.52544,-1.94387 -46.08908,-3.51132 z"
       id="path49" /><path
       style="display:inline;fill:#1e1e2e;fill-opacity:1"
       d="m 484.53913,263.25643 24.37744,-6.53939 c 0.20449,0.40899 35.15549,-0.28938 51.66815,28.06207 7.27468,12.49029 -159.98384,338.80726 30.46945,332.04454 156.87382,-5.57036 101.40768,-230.595 58.24848,-306.00288 -12.22771,-49.29688 -14.8156,-111.27507 -78.59578,-116.58796 -39.89649,0.39906 -51.86512,40.69301 -51.86512,40.69301 0,0 -11.21943,5.28296 -21.24193,10.23702 -4.95422,2.44884 -7.97315,5.95668 -10.28914,9.88547 -1.37285,2.32888 -3.68746,3.55087 -2.77155,8.20812 z"
       id="path43" /><ellipse
       style="fill:#04a5e5;fill-opacity:1"
       id="path44"
       ry="3.5886962"
       rx="3.5890083"
       cy="219.1084"
       cx="552.93073" /><path
       style="fill:#1e1e2e;fill-opacity:1"
       d="m 687.13165,399.62883 c 54.23271,-25.77642 116.96172,19.2095 121.77062,60.36154 v 0 C 800.69818,358.98203 664.0461,330.81987 664.37962,336.99899 c 10.33289,20.69744 16.64502,40.46913 22.75203,62.62984 z m -167.34216,3.49448 C 464.52799,379.63338 403.73166,427.19879 400.6449,468.5157 v 0 c 3.98021,-101.26277 139.3375,-135.1051 139.26222,-128.91744 -9.45984,21.11075 -14.94107,41.12872 -20.11763,63.52505 z"
       id="path46" /><path
       style="display:inline;fill:#eff1f5;fill-opacity:1;stroke:url(#linearGradient51)"
       d="m 681.72991,142.11737 c 0,0 -48.0556,-54.567103 -147.56112,-82.832725 C 251.21377,-21.091808 102.65089,186.39881 67.955184,243.37057 c 0,0 -40.97268,71.76785 -45.710087,162.11978 C 9.776451,643.29261 234.23286,793.13559 407.77083,796.99158 644.59406,802.25375 841.89085,580.50444 808.90227,459.99037 779.34432,668.29891 415.90202,753.80816 280.96248,503.9645 180.28317,317.55444 335.40746,47.853198 576.30249,103.48643 c 55.24993,12.75963 84.78191,26.89716 105.42742,38.63094 z"
       id="path42" /></g></svg>
